<svg id="Layer_1" data-name="Layer 1" xmlns="http://www.w3.org/2000/svg" viewBox="0 0 923 226"><defs><style>.cls-1{fill:#c1272d;}.cls-2{fill:#fff;}</style></defs><title>Artboard 1</title><path class="cls-1" d="M96.94,136.62q5.67-20.36,14-43.68l29.77-82.47h44.32V182.88H153.51V95.52q0-19.2,1.55-44.59H153.9q-2.19,7.35-5.16,16.49t-6.18,18l-35.7,97.41H86.5L50.81,85.47q-3.23-8.89-6.19-18T39.47,50.93H38.31q1.55,23.83,1.55,44.46v87.49H8.29V10.47H52.36L82.12,92.55q7.47,20.49,14,44.07Z"/><path class="cls-1" d="M226.89,10.47v146h80.67v26.41H195.32V10.47Z"/><path d="M469.09,41.68,430.71,177.57a7.31,7.31,0,0,1-7,5.31h-9.62a7.28,7.28,0,0,1-7-5.32L377.58,72.91a68.88,68.88,0,0,1-2.42-15.33h-.42A77.78,77.78,0,0,1,372,72.7L342.35,177.57a7.31,7.31,0,0,1-7,5.31h-9.47a7.29,7.29,0,0,1-7-5.24L279.05,41.75a7.3,7.3,0,0,1,7-9.35h4.12a7.29,7.29,0,0,1,7,5.35l30.53,110.08A75.8,75.8,0,0,1,330.25,163h.52A89.15,89.15,0,0,1,334,147.83L365.77,37.68a7.29,7.29,0,0,1,7-5.28h5.84a7.3,7.3,0,0,1,7,5.37l30.43,110.9a85.11,85.11,0,0,1,2.52,14.07H419a84.25,84.25,0,0,1,2.83-14.49L451.17,37.83a7.3,7.3,0,0,1,7.05-5.43h3.84A7.3,7.3,0,0,1,469.09,41.68Z"/><path d="M564.2,133.46h-74a.93.93,0,0,0-.92,1q.63,17.24,9.62,26.74,9.24,9.76,25.4,9.76a52.41,52.41,0,0,0,31.9-10.84.92.92,0,0,1,1.47.73v13.83a1,1,0,0,1-.39.76q-14.1,10-37.08,10-22.77,0-35.78-14.64t-13-41.19q0-25.08,14.22-40.87t35.31-15.79q21.09,0,32.64,13.64t11.54,37.88v8.11A.92.92,0,0,1,564.2,133.46Zm-17.65-14.59a.93.93,0,0,0,.93-.94q-.33-14.22-7.18-22.25a22.92,22.92,0,0,0-13.61-7.75,30.26,30.26,0,0,0-29.52,11.39,40.55,40.55,0,0,0-7.55,18.48.93.93,0,0,0,.91,1.07Z"/><path d="M597.78,170.35h-.42v13a2.51,2.51,0,0,1-2.51,2.5h-12.2a2.5,2.5,0,0,1-2.5-2.5V29.3a2.5,2.5,0,0,1,2.5-2.51h12.2a2.51,2.51,0,0,1,2.51,2.51v68h.42q12.69-21.4,37.14-21.4,20.69,0,32.38,14.43T679,129q0,27-13.12,43.18T630,188.4Q608.69,188.4,597.78,170.35ZM597.36,127v15A32,32,0,0,0,606,164.63q8.65,9.3,22,9.29,15.63,0,24.5-12t8.87-33.27q0-17.94-8.29-28.12T630.62,90.39q-15,0-24.13,10.44T597.36,127Z"/><rect x="687" y="5" width="228" height="151"/><rect x="793" y="142" width="15" height="69"/><rect x="710" y="197" width="183" height="14"/><circle class="cls-2" cx="800.5" cy="152.5" r="3.5"/><rect class="cls-2" x="700" y="15.22" width="202" height="129.78"/><path d="M789.77,124.56q-13.18-.18-13.19-13.32V98.35q0-8.68-6.7-9.11v-5q6.69-.42,6.7-9.28V62.42q0-13.32,13.19-13.49v5.5q-6.82.18-6.83,8.51V75.53q0,9-6.45,11.09v.17q6.45,1.93,6.45,11v12.42q0,4.77,1.52,6.81t5.31,2.12Z"/><path d="M831.17,89.24q-6.7.42-6.71,9.11v12.89q0,13.14-13.15,13.32v-5.42c2.5,0,4.26-.77,5.31-2.15s1.57-3.63,1.57-6.78V97.79q0-9.08,6.4-11v-.17q-6.4-2.07-6.4-11.09V62.94q0-8.34-6.88-8.51v-5.5q13.16.18,13.15,13.49V75q0,8.85,6.71,9.28Z"/><path d="M8.15,195.51H12l1.49,13.82c.17,1.93.29,3.21.39,5.43H14c.38-2.22.67-3.51,1.1-5.41l2-8,2.93,0,2,8c.46,1.88.73,3.17,1.14,5.39h.14c.1-2.23.15-3.5.32-5.4l1.3-13.86,3.63,0-3.12,23-4.12,0-2.05-8.67a40.05,40.05,0,0,1-.8-4.19h-.11c-.21,1.4-.41,2.78-.73,4.19l-2,8.69-4,0Z"/><path d="M31.18,209.78a8.62,8.62,0,0,1,8.73-9c5,0,7.89,3.26,7.91,8a12.93,12.93,0,0,1-.15,1.9l-14.07.06,0-2.55,11.9-.06-.75.86c0-3.71-1.81-5.56-4.71-5.54s-5.44,2.23-5.42,6.26c0,4.21,2.66,6.26,6.34,6.25a9.37,9.37,0,0,0,5-1.53l1.23,2.2a12.25,12.25,0,0,1-6.66,2.06C35.32,218.76,31.2,215.48,31.18,209.78Z"/><path d="M56.2,216.36h-.12l-.31,1.89H53l-.12-24.82h3.49l0,6.58-.14,3.14h.11a8,8,0,0,1,5.45-2.45c4.52,0,7.07,3.38,7.09,8.65,0,5.86-3.6,9.27-7.58,9.29A7.92,7.92,0,0,1,56.2,216.36Zm9.16-7c0-3.58-1.33-5.82-4.41-5.8a6.42,6.42,0,0,0-4.5,2.3l0,8.1a6.49,6.49,0,0,0,4.18,1.73C63.33,215.73,65.38,213.46,65.36,209.41Z"/><path d="M93.9,209.55c0-5.57,3.62-9,7.58-9a6.92,6.92,0,0,1,4.93,2.07h.09l-.18-3,0-6.38,3.49,0,.11,24.82H107l-.29-2.12h-.11a7.92,7.92,0,0,1-5.36,2.57C96.86,218.48,93.92,215.22,93.9,209.55Zm12.48,3.69,0-8.09a5.7,5.7,0,0,0-4-1.73c-2.67,0-4.84,2.34-4.82,6.07,0,3.89,1.75,6.07,4.61,6.06A5.68,5.68,0,0,0,106.38,213.24Z"/><path d="M115.18,209.4a8.63,8.63,0,0,1,8.73-9c5,0,7.89,3.26,7.91,8a12.78,12.78,0,0,1-.15,1.89l-14.07.07,0-2.56,11.9,0-.75.85c0-3.7-1.81-5.55-4.71-5.54s-5.44,2.24-5.43,6.27c0,4.2,2.67,6.26,6.35,6.24a9.29,9.29,0,0,0,5-1.53l1.23,2.2a12.09,12.09,0,0,1-6.66,2.06C119.32,218.38,115.2,215.09,115.18,209.4Z"/><path d="M135.45,200.78l3.55,0,3.65,9.24c.65,1.72,1.25,3.42,1.83,5.11h.14c.57-1.69,1.1-3.4,1.75-5.13l3.58-9.27h3.34l-6.8,17.13-4,0Z"/><path d="M157.17,209.2a8.64,8.64,0,0,1,8.74-9c5,0,7.89,3.26,7.91,8a12.9,12.9,0,0,1-.15,1.89l-14.08.06v-2.55l11.9,0-.75.85c0-3.7-1.81-5.55-4.72-5.54s-5.43,2.23-5.42,6.27c0,4.2,2.67,6.26,6.34,6.24a9.24,9.24,0,0,0,5-1.53l1.23,2.2a12,12,0,0,1-6.65,2.06C161.32,218.18,157.2,214.9,157.17,209.2Z"/><path d="M184.17,211.67l-.07-16-5.88,0v-2.78l9.36,0,.09,19c0,2.37,1.36,3.32,3.24,3.31a7.46,7.46,0,0,0,3-.73l.85,2.59a11.32,11.32,0,0,1-4.71,1C186.27,218.07,184.19,215.8,184.17,211.67Z"/><path d="M198.9,209.07c0-5.73,4-9,8.47-9s8.54,3.24,8.56,9-4,9-8.48,9S198.92,214.74,198.9,209.07Zm13.46-.06c0-3.69-2-6.13-5-6.11s-4.94,2.47-4.92,6.15,1.95,6.07,5,6.06S212.38,212.66,212.36,209Z"/><path d="M220.94,200.39l2.85,0,.29,2.07h.11a8.72,8.72,0,0,1,5.68-2.51c4.52,0,7,3.38,7.06,8.68,0,5.83-3.6,9.24-7.64,9.26a7.57,7.57,0,0,1-4.88-2.09h-.08l.18,3.11,0,5.57-3.49,0Zm12.42,8.25c0-3.58-1.33-5.82-4.41-5.8a6.42,6.42,0,0,0-4.5,2.3l0,8.1a6.47,6.47,0,0,0,4.12,1.73C231.33,215,233.38,212.69,233.36,208.64Z"/><path d="M241.17,208.82a8.65,8.65,0,0,1,8.74-9c5,0,7.89,3.26,7.91,8a14.48,14.48,0,0,1-.15,1.9l-14.08.06v-2.55l11.9-.06-.75.86c0-3.71-1.82-5.56-4.72-5.55s-5.44,2.24-5.42,6.27c0,4.2,2.67,6.26,6.34,6.24a9.23,9.23,0,0,0,5-1.52l1.23,2.19a12.11,12.11,0,0,1-6.65,2.07C245.31,217.8,241.2,214.51,241.17,208.82Z"/><path d="M261.69,200.2h2.72l.29,2.21h.08c.81-1.53,1.87-2.64,3.84-2.65,1.63,0,2.7,1,3.18,2.9.88-1.76,2-2.92,3.94-2.93,2.41,0,3.81,1.91,3.83,5.32l.06,12.18-3.4,0-.05-11.93c0-1.74-.5-2.62-1.6-2.61s-1.64.79-2.43,2.39l.06,12.17h-3l-.05-11.93c0-1.73-.46-2.62-1.57-2.61s-1.73.8-2.46,2.39l.05,12.17h-3.39Z"/><path d="M283.17,208.63a8.64,8.64,0,0,1,8.74-9c5,0,7.89,3.26,7.91,8a14.16,14.16,0,0,1-.15,1.89l-14.08.07v-2.56l11.9-.05-.75.85c0-3.7-1.82-5.55-4.72-5.54s-5.44,2.24-5.42,6.27c0,4.2,2.67,6.26,6.34,6.24a9.24,9.24,0,0,0,5-1.53l1.23,2.2a12,12,0,0,1-6.65,2.06C287.31,217.61,283.2,214.32,283.17,208.63Z"/><path d="M304.94,200h2.85l.29,2.72h.14c1.7-1.76,3.65-3.16,6.29-3.17,4,0,5.83,2.43,5.85,6.89l.05,10.61h-3.49l-.05-10.15c0-3-1-4.36-3.55-4.35-1.86,0-3.11.93-4.87,2.75l.05,11.79-3.48,0Z"/><path d="M329.84,210.23l0-7.56-4.72,0v-2.6l4.85-.2.43-5.43h2.9l0,5.42,8.07,0v2.78l-8.07,0,0,7.56c0,2.94,1.06,4.36,4.15,4.35a11.09,11.09,0,0,0,3.9-.75l.72,2.54a15.84,15.84,0,0,1-5.41,1C331.58,217.4,329.86,214.52,329.84,210.23Z"/></svg>